<?xml version="1.0" encoding="utf-8"?>
<svg xmlns="http://www.w3.org/2000/svg" xmlns:xlink="http://www.w3.org/1999/xlink" viewBox="0 0 436.8 245.2">
	<path d="M343.7,59c-12.7,0-24.8,2.6-35.8,7.2L281.5,15h36.9c4,0,7.3,3.3,7.3,7.3s-3.3,7.3-7.3,7.3h-7.9c-4.1,0-7.5,3.4-7.5,7.5
		s3.4,7.5,7.5,7.5h7.9c12.3,0,22.3-10,22.3-22.3S330.7,0,318.4,0h-49.2c-2.6,0-5,1.4-6.4,3.6c-1.4,2.2-1.5,5-0.3,7.3l13.1,25.5H167.4
		L156.5,15h17.3c4.1,0,7.5-3.4,7.5-7.5S177.9,0,173.8,0h-49.2c-4.1,0-7.5,3.4-7.5,7.5s3.4,7.5,7.5,7.5h15.1l14.6,28.6l-17.1,26.5
		C124,63,109,59,93.1,59C41.8,59,0,100.8,0,152.1s41.8,93.1,93.1,93.1c48.8,0,89-37.8,92.8-85.6h22l-8.5,27.8h-4.9
		c-4.1,0-7.5,3.4-7.5,7.5s3.4,7.5,7.5,7.5h27c4.1,0,7.5-3.4,7.5-7.5s-3.4-7.5-7.5-7.5H215l9.9-32.1L287.3,59l7.3,14.1
		c-26.4,16.5-43.9,45.7-43.9,79c0,51.3,41.8,93.1,93.1,93.1c51.3,0,93.1-41.8,93.1-93.1C436.8,100.8,395.1,59,343.7,59z M162.1,59
		l43.7,85.6h-19.9c-2.2-27-15.9-50.8-36.2-66.4L162.1,59z M170.8,144.6h-64l34.7-53.7C157.7,103.8,168.7,122.9,170.8,144.6z
		 M93.1,230.2c-43.1,0-78.1-35-78.1-78.1C15,109.1,50,74,93.1,74c12.9,0,25.1,3.2,35.8,8.7l-42.1,65.3c-1.5,2.3-1.6,5.2-0.3,7.7
		c1.3,2.4,3.8,3.9,6.6,3.9h77.7C167,199.2,133.6,230.2,93.1,230.2z M218.8,137.1l-43.7-85.7h99.3L218.8,137.1z M343.7,230.2
		c-43.1,0-78.1-35-78.1-78.1c0-27.5,14.3-51.7,35.8-65.6l35.6,69.1c1.3,2.6,4,4.1,6.7,4.1c1.2,0,2.3-0.3,3.4-0.8
		c3.7-1.9,5.1-6.4,3.2-10.1l-35.6-69.1c9-3.6,18.7-5.6,28.9-5.6c43.1,0,78.1,35,78.1,78.1C421.8,195.2,386.8,230.2,343.7,230.2z"/>
</svg>
